<?xml version="1.0" standalone="no"?>
<!DOCTYPE svg PUBLIC "-//W3C//DTD SVG 20010904//EN"
 "http://www.w3.org/TR/2001/REC-SVG-20010904/DTD/svg10.dtd">
<svg version="1.0" xmlns="http://www.w3.org/2000/svg"
 width="300.000000pt" height="300.000000pt" viewBox="0 0 300.000000 300.000000"
 preserveAspectRatio="xMidYMid meet">
<metadata>
Created by potrace 1.11, written by Peter Selinger 2001-2013
</metadata>
<g transform="translate(0.000000,300.000000) scale(0.100000,-0.100000)"
fill="#000000" stroke="none">
<path d="M1294 2338 c-12 -5 -27 -21 -33 -34 -16 -35 -16 -1733 0 -1767 18
-40 49 -47 219 -47 170 0 201 7 219 47 16 34 16 1732 0 1766 -6 14 -22 30 -36
36 -31 14 -340 14 -369 -1z"/>
<path d="M1964 1738 c-12 -5 -27 -21 -33 -34 -15 -35 -16 -1133 0 -1167 18
-40 49 -47 219 -47 170 0 201 7 219 47 15 34 15 1132 0 1166 -6 14 -22 30 -36
36 -31 14 -340 14 -369 -1z"/>
<path d="M664 1338 c-12 -5 -27 -21 -33 -34 -15 -34 -15 -734 0 -767 18 -40
49 -47 219 -47 170 0 201 7 219 47 15 33 15 733 0 766 -6 14 -22 30 -36 36
-31 14 -340 14 -369 -1z"/>
<path d="M360 295 l0 -25 1140 0 1140 0 0 25 0 25 -1140 0 -1140 0 0 -25z"/>
</g>
</svg>
